<svg width="24" height="24" viewBox="0 0 24 24" fill="none" xmlns="http://www.w3.org/2000/svg">
<path fill-rule="evenodd" clip-rule="evenodd" d="M11.9728 20.3681C8.7338 20.3681 5.9668 19.8781 5.9668 17.9161C5.9668 15.9541 8.7158 14.2461 11.9728 14.2461C15.2118 14.2461 17.9788 15.9381 17.9788 17.8991C17.9788 19.8601 15.2298 20.3681 11.9728 20.3681Z" stroke="#212121" stroke-width="1.5" stroke-linecap="round" stroke-linejoin="round"/>
<path fill-rule="evenodd" clip-rule="evenodd" d="M11.9731 11.449C14.0991 11.449 15.8231 9.726 15.8231 7.6C15.8231 5.474 14.0991 3.75 11.9731 3.75C9.84706 3.75 8.12306 5.474 8.12306 7.6C8.11706 9.718 9.82706 11.442 11.9461 11.449H11.9731Z" stroke="#212121" stroke-width="1.5" stroke-linecap="round" stroke-linejoin="round"/>
<path d="M18.3623 10.392C19.5993 10.061 20.5113 8.93302 20.5113 7.59002C20.5113 6.18902 19.5183 5.01902 18.1963 4.74902" stroke="#212121" stroke-width="1.5" stroke-linecap="round" stroke-linejoin="round"/>
<path d="M18.9434 13.5449C20.6974 13.5449 22.1954 14.7339 22.1954 15.7959C22.1954 16.4209 21.6784 17.1019 20.8944 17.2859" stroke="#212121" stroke-width="1.5" stroke-linecap="round" stroke-linejoin="round"/>
<path d="M5.58359 10.392C4.34559 10.061 3.43359 8.93302 3.43359 7.59002C3.43359 6.18902 4.42759 5.01902 5.74859 4.74902" stroke="#212121" stroke-width="1.5" stroke-linecap="round" stroke-linejoin="round"/>
<path d="M5.002 13.5449C3.248 13.5449 1.75 14.7339 1.75 15.7959C1.75 16.4209 2.267 17.1019 3.052 17.2859" stroke="#212121" stroke-width="1.5" stroke-linecap="round" stroke-linejoin="round"/>
</svg>
