<svg width="28" height="28" viewBox="0 0 28 28" fill="none" xmlns="http://www.w3.org/2000/svg">
<path d="M23.333 14.3193C23.333 14.7623 23.0038 15.1284 22.5767 15.1863L22.458 15.1943L4.95801 15.1943C4.47476 15.1943 4.08301 14.8026 4.08301 14.3193C4.08301 13.8764 4.41219 13.5103 4.83928 13.4523L4.95801 13.4443L22.458 13.4443C22.9413 13.4443 23.333 13.8361 23.333 14.3193Z" fill="#212121"/>
<path d="M12.634 20.7281C12.9764 21.0691 12.9776 21.6231 12.6367 21.9656C12.3267 22.2769 11.8406 22.3062 11.4975 22.0527L11.3992 21.9682L4.34088 14.9402C4.02864 14.6293 4.00024 14.1415 4.25568 13.7984L4.34083 13.7002L11.3992 6.67102C11.7416 6.33002 12.2956 6.33116 12.6366 6.67358C12.9466 6.98487 12.9738 7.47103 12.719 7.81305L12.634 7.91101L6.19867 14.3205L12.634 20.7281Z" fill="#212121"/>
</svg>
