<svg width="16" height="16" viewBox="0 0 16 16" fill="none" xmlns="http://www.w3.org/2000/svg">
<path fill-rule="evenodd" clip-rule="evenodd" d="M1.33301 10.7197V5.27301C1.33301 2.91967 2.84701 1.33301 5.10634 1.33301H10.8863C13.1463 1.33301 14.6663 2.91967 14.6663 5.27301V10.7197C14.6663 13.0797 13.1463 14.6663 10.8863 14.6663H5.10634C2.84701 14.6663 1.33301 13.0797 1.33301 10.7197ZM8.49967 9.51301V5.27967C8.49967 4.99967 8.27301 4.77967 7.99967 4.77967C7.71967 4.77967 7.49967 4.99967 7.49967 5.27967V9.51301L5.85301 7.85967C5.75968 7.76634 5.62634 7.71301 5.49967 7.71301C5.37367 7.71301 5.24634 7.76634 5.14634 7.85967C4.95301 8.05301 4.95301 8.37301 5.14634 8.56634L7.64634 11.0797C7.83301 11.2663 8.16634 11.2663 8.35301 11.0797L10.853 8.56634C11.0463 8.37301 11.0463 8.05301 10.853 7.85967C10.653 7.66634 10.3397 7.66634 10.1397 7.85967L8.49967 9.51301Z" fill="#246BFD"/>
</svg>
