<svg width="16" height="16" viewBox="0 0 16 16" fill="none" xmlns="http://www.w3.org/2000/svg">
<path fill-rule="evenodd" clip-rule="evenodd" d="M14.6663 5.27967V10.7263C14.6663 13.0797 13.1523 14.6663 10.893 14.6663H5.11301C2.85301 14.6663 1.33301 13.0797 1.33301 10.7263V5.27967C1.33301 2.91967 2.85301 1.33301 5.11301 1.33301H10.893C13.1523 1.33301 14.6663 2.91967 14.6663 5.27967ZM7.49967 6.48634V10.7197C7.49967 10.9997 7.72634 11.2197 7.99967 11.2197C8.27967 11.2197 8.49967 10.9997 8.49967 10.7197V6.48634L10.1463 8.13967C10.2397 8.23301 10.373 8.28634 10.4997 8.28634C10.6257 8.28634 10.753 8.23301 10.853 8.13967C11.0463 7.94634 11.0463 7.62634 10.853 7.43301L8.35301 4.91967C8.16634 4.73301 7.83301 4.73301 7.64634 4.91967L5.14634 7.43301C4.95301 7.62634 4.95301 7.94634 5.14634 8.13967C5.34634 8.33301 5.65967 8.33301 5.85967 8.13967L7.49967 6.48634Z" fill="#F75555"/>
</svg>
