<svg width="36" height="36" viewBox="0 0 36 36" fill="none" xmlns="http://www.w3.org/2000/svg">
<g clip-path="url(#clip0_1342_28280)">
<path d="M23.948 18.6021C22.9974 18.6021 22.103 18.0958 21.6193 17.2858L18.0024 11.2896L14.3911 17.2858C13.9018 18.1015 13.0074 18.6077 12.0568 18.6077C11.8036 18.6077 11.5505 18.574 11.3086 18.5008L3.60238 16.2958V26.3083C3.60238 27.1352 4.16488 27.8552 4.96363 28.0521L17.1249 31.0952C17.6986 31.2358 18.3005 31.2358 18.8686 31.0952L31.0411 28.0521C31.8399 27.8496 32.4024 27.1296 32.4024 26.3083V16.2958L24.6961 18.4952C24.4543 18.5683 24.2011 18.6021 23.948 18.6021ZM35.9068 12.2908L33.0099 6.50833C32.8355 6.15958 32.4586 5.95708 32.0705 6.0077L18.0024 7.80208L23.1605 16.3577C23.3743 16.7121 23.8018 16.8808 24.2011 16.7683L35.333 13.5902C35.8899 13.4271 36.1599 12.8083 35.9068 12.2908ZM2.99488 6.50833L0.0980058 12.2908C-0.160744 12.8083 0.114881 13.4271 0.666131 13.5846L11.798 16.7627C12.1974 16.8752 12.6249 16.7065 12.8386 16.3521L18.0024 7.80208L3.92863 6.0077C3.54051 5.9627 3.16926 6.15958 2.99488 6.50833Z" fill="#9E9E9E"/>
</g>
<defs>
<clipPath id="clip0_1342_28280">
<rect width="36" height="36" fill="white"/>
</clipPath>
</defs>
</svg>
