<svg width="20" height="20" viewBox="0 0 20 20" fill="none" xmlns="http://www.w3.org/2000/svg">
<path d="M6.66602 3.33366V13.3337C6.66602 13.7757 6.84161 14.1996 7.15417 14.5122C7.46673 14.8247 7.89065 15.0003 8.33268 15.0003H14.9993C15.4414 15.0003 15.8653 14.8247 16.1779 14.5122C16.4904 14.1996 16.666 13.7757 16.666 13.3337V6.03533C16.666 5.81329 16.6216 5.5935 16.5354 5.38886C16.4493 5.18422 16.3231 4.99886 16.1643 4.84366L13.4018 2.14199C13.0905 1.83754 12.6723 1.66705 12.2368 1.66699H8.33268C7.89065 1.66699 7.46673 1.84259 7.15417 2.15515C6.84161 2.46771 6.66602 2.89163 6.66602 3.33366V3.33366Z" stroke="#101010" stroke-width="2" stroke-linecap="round" stroke-linejoin="round"/>
<path d="M13.333 15.0007V16.6673C13.333 17.1093 13.1574 17.5333 12.8449 17.8458C12.5323 18.1584 12.1084 18.334 11.6663 18.334H4.99967C4.55765 18.334 4.13372 18.1584 3.82116 17.8458C3.5086 17.5333 3.33301 17.1093 3.33301 16.6673V7.50065C3.33301 7.05862 3.5086 6.6347 3.82116 6.32214C4.13372 6.00958 4.55765 5.83398 4.99967 5.83398H6.66634" stroke="#101010" stroke-width="2" stroke-linecap="round" stroke-linejoin="round"/>
</svg>
