<svg width="16" height="16" viewBox="0 0 16 16" fill="none" xmlns="http://www.w3.org/2000/svg">
<path d="M7.48641 4.86067V2.188C7.48641 1.90381 7.71307 1.66699 7.99974 1.66699C8.25641 1.66699 8.47386 1.86599 8.50832 2.11805L8.51307 2.188V4.86067L11.6997 4.86088C13.2863 4.86088 14.5899 6.16018 14.6631 7.7806L14.6663 7.92439V11.2839C14.6663 12.9157 13.4081 14.2551 11.845 14.3303L11.7063 14.3337H4.29301C2.70634 14.3337 1.40907 13.0409 1.33623 11.4145L1.33301 11.2702L1.33301 7.9175C1.33301 6.28573 2.58495 4.9398 4.14767 4.86422L4.28634 4.86088H7.48634V9.12914L6.41967 8.02765C6.21967 7.82112 5.89301 7.82112 5.69301 8.02765C5.59301 8.13091 5.54634 8.2686 5.54634 8.40629C5.54634 8.51093 5.57621 8.61997 5.63935 8.71228L5.69301 8.77804L7.63301 10.7882C7.72634 10.8915 7.85967 10.9466 7.99967 10.9466C8.11079 10.9466 8.2219 10.9083 8.30986 10.8358L8.35967 10.7882L10.2997 8.77804C10.4997 8.57151 10.4997 8.23418 10.2997 8.02765C10.1179 7.8399 9.83135 7.82283 9.6305 7.97644L9.57301 8.02765L8.51301 9.12914V4.86088L7.48641 4.86067Z" fill="#35383F"/>
</svg>
