<svg width="20" height="20" viewBox="0 0 20 20" fill="none" xmlns="http://www.w3.org/2000/svg">
<path fill-rule="evenodd" clip-rule="evenodd" d="M13.5862 2.29199H6.37616C3.86616 2.29199 2.29199 4.07033 2.29199 6.58699V13.3753C2.29199 15.892 3.85949 17.6703 6.37616 17.6703H13.582C16.1028 17.6703 17.6695 15.892 17.6695 13.3753V6.58699C17.6728 4.07033 16.1053 2.29199 13.5862 2.29199Z" stroke="#101010" stroke-width="1.5" stroke-linecap="round" stroke-linejoin="round"/>
<path fill-rule="evenodd" clip-rule="evenodd" d="M8.91944 7.32056C8.91944 8.17056 8.23111 8.85889 7.38111 8.85889C6.53194 8.85889 5.84277 8.17056 5.84277 7.32056C5.84277 6.47056 6.53194 5.78223 7.38111 5.78223C8.23027 5.78306 8.91861 6.47139 8.91944 7.32056Z" stroke="#101010" stroke-width="1.5" stroke-linecap="round" stroke-linejoin="round"/>
<path d="M17.6725 12.4592C16.9033 11.6675 15.4242 10.0684 13.8158 10.0684C12.2067 10.0684 11.2792 13.5959 9.73167 13.5959C8.18417 13.5959 6.77833 12.0009 5.53833 13.0234C4.29833 14.045 3.125 16.1342 3.125 16.1342" stroke="#101010" stroke-width="1.5" stroke-linecap="round" stroke-linejoin="round"/>
</svg>
