<svg width="42" height="32" viewBox="0 0 42 32" fill="none" xmlns="http://www.w3.org/2000/svg">
<g clip-path="url(#clip0_1499_4696)">
<path d="M7.48409 31.8406V29.7226C7.48409 28.9106 6.98978 28.3812 6.14251 28.3812C5.71895 28.3812 5.26001 28.5224 4.94226 28.9813C4.69527 28.593 4.3423 28.3812 3.81278 28.3812C3.45965 28.3812 3.10685 28.487 2.82431 28.8753V28.4518H2.08301V31.8406H2.82431V29.9696C2.82431 29.3696 3.14206 29.0871 3.63637 29.0871C4.13036 29.0871 4.37768 29.4049 4.37768 29.9696V31.8406H5.11899V29.9696C5.11899 29.3696 5.47179 29.0871 5.93073 29.0871C6.42504 29.0871 6.67203 29.4049 6.67203 29.9696V31.8406H7.48409ZM18.4623 28.4518H17.2623V27.4281H16.521V28.4518H15.8502V29.1223H16.5208V30.6757C16.5208 31.4524 16.8385 31.9112 17.6858 31.9112C18.0036 31.9112 18.3564 31.8053 18.6037 31.6642L18.3918 31.0287C18.18 31.1698 17.933 31.2052 17.7564 31.2052C17.4034 31.2052 17.2623 30.9934 17.2623 30.6403V29.1223H18.4623V28.4518ZM24.7459 28.381C24.3224 28.381 24.04 28.593 23.8634 28.8753V28.4518H23.1221V31.8406H23.8634V29.9344C23.8634 29.3696 24.1104 29.0519 24.5694 29.0519C24.7105 29.0519 24.8871 29.0873 25.0283 29.1225L25.2401 28.4166C25.0989 28.3812 24.8871 28.3812 24.7459 28.3812V28.381ZM15.2501 28.7341C14.897 28.487 14.4028 28.3812 13.8733 28.3812C13.0262 28.3812 12.4615 28.8047 12.4615 29.4755C12.4615 30.0404 12.885 30.3579 13.6263 30.4639L13.9793 30.4993C14.3676 30.5697 14.5794 30.6757 14.5794 30.8523C14.5794 31.0993 14.297 31.2758 13.8027 31.2758C13.3086 31.2758 12.9202 31.0993 12.6731 30.9229L12.3201 31.4876C12.7085 31.77 13.238 31.9112 13.7674 31.9112C14.7558 31.9112 15.3207 31.4524 15.3207 30.8169C15.3207 30.2168 14.8618 29.899 14.1557 29.7932L13.8027 29.7578C13.485 29.7225 13.238 29.652 13.238 29.4402C13.238 29.1931 13.485 29.0519 13.8733 29.0519C14.297 29.0519 14.7206 29.2283 14.9324 29.3343L15.2501 28.7341ZM34.9478 28.3812C34.5241 28.3812 34.2417 28.593 34.0652 28.8753V28.4518H33.3239V31.8406H34.0652V29.9344C34.0652 29.3696 34.3123 29.0519 34.7711 29.0519C34.9124 29.0519 35.089 29.0873 35.2302 29.1225L35.442 28.4166C35.3008 28.3812 35.089 28.3812 34.9478 28.3812ZM25.4872 30.1462C25.4872 31.1698 26.1932 31.9112 27.2876 31.9112C27.7817 31.9112 28.1347 31.8053 28.4877 31.523L28.1347 30.9229C27.8523 31.1346 27.57 31.2404 27.2522 31.2404C26.6521 31.2404 26.2285 30.8169 26.2285 30.1462C26.2285 29.5108 26.6521 29.0871 27.2522 29.0519C27.57 29.0519 27.8523 29.1577 28.1347 29.3696L28.4877 28.7695C28.1347 28.487 27.7817 28.3812 27.2876 28.3812C26.1932 28.3812 25.4872 29.1225 25.4872 30.1462ZM32.3356 30.1462V28.4518H31.5942V28.8753C31.3471 28.5577 30.9941 28.3812 30.5352 28.3812C29.5821 28.3812 28.8408 29.1225 28.8408 30.1462C28.8408 31.1698 29.5821 31.9112 30.5352 31.9112C31.0293 31.9112 31.3825 31.7348 31.5942 31.417V31.8406H32.3356V30.1462ZM29.6173 30.1462C29.6173 29.546 30.0057 29.0519 30.641 29.0519C31.2411 29.0519 31.6648 29.5108 31.6648 30.1462C31.6648 30.7463 31.2411 31.2404 30.641 31.2404C30.0057 31.2051 29.6173 30.7463 29.6173 30.1462ZM20.757 28.3812C19.7686 28.3812 19.0625 29.0871 19.0625 30.1462C19.0625 31.2052 19.7684 31.9112 20.7922 31.9112C21.2864 31.9112 21.7807 31.77 22.169 31.4524L21.8159 30.9229C21.5335 31.1346 21.1806 31.2758 20.8276 31.2758C20.3687 31.2758 19.9097 31.064 19.8038 30.4638H22.3102V30.1815C22.3456 29.0871 21.7101 28.3812 20.7569 28.3812H20.757ZM20.757 29.0165C21.2158 29.0165 21.5337 29.2991 21.6041 29.8286H19.8391C19.9097 29.3696 20.2275 29.0165 20.757 29.0165ZM39.1485 30.1462V27.1104H38.4072V28.8753C38.16 28.5577 37.8071 28.3812 37.3481 28.3812C36.3951 28.3812 35.6537 29.1225 35.6537 30.1462C35.6537 31.1698 36.3951 31.9112 37.3481 31.9112C37.8424 31.9112 38.1954 31.7348 38.4072 31.417V31.8406H39.1485V30.1462ZM36.4304 30.1462C36.4304 29.546 36.8186 29.0519 37.4541 29.0519C38.0542 29.0519 38.4778 29.5108 38.4778 30.1462C38.4778 30.7463 38.0542 31.2404 37.4541 31.2404C36.8186 31.2051 36.4304 30.7463 36.4304 30.1462ZM11.6494 30.1462V28.4518H10.9081V28.8753C10.6609 28.5577 10.308 28.3812 9.84904 28.3812C8.89595 28.3812 8.15465 29.1225 8.15465 30.1462C8.15465 31.1698 8.89595 31.9112 9.84904 31.9112C10.3433 31.9112 10.6963 31.7348 10.9081 31.417V31.8406H11.6494V30.1462ZM8.89595 30.1462C8.89595 29.546 9.28429 29.0519 9.91963 29.0519C10.5198 29.0519 10.9435 29.5108 10.9435 30.1462C10.9435 30.7463 10.5198 31.2404 9.91963 31.2404C9.28429 31.2051 8.89595 30.7463 8.89595 30.1462Z" fill="black"/>
<path d="M15.0029 2.71777H26.1225V22.6978H15.0029V2.71777Z" fill="#FF5F00"/>
<path d="M15.7088 12.7082C15.7088 8.64868 17.615 5.04796 20.5448 2.71807C18.3916 1.02368 15.6736 0 12.7083 0C5.6833 0 0 5.6833 0 12.7082C0 19.7329 5.6833 25.4164 12.7082 25.4164C15.6734 25.4164 18.3915 24.3927 20.5448 22.6981C17.615 20.4036 15.7088 16.7677 15.7088 12.7082Z" fill="#EB001B"/>
<path d="M41.1249 12.7082C41.1249 19.7329 35.4416 25.4164 28.4167 25.4164C25.4515 25.4164 22.7334 24.3927 20.5801 22.6981C23.5453 20.3684 25.4163 16.7677 25.4163 12.7082C25.4163 8.64868 23.5099 5.04796 20.5801 2.71807C22.7332 1.02368 25.4515 0 28.4167 0C35.4416 0 41.125 5.71867 41.125 12.7082H41.1249Z" fill="#F79E1B"/>
</g>
<defs>
<clipPath id="clip0_1499_4696">
<rect width="41.1658" height="32" fill="white"/>
</clipPath>
</defs>
</svg>
