<svg width="36" height="36" viewBox="0 0 36 36" fill="none" xmlns="http://www.w3.org/2000/svg">
<path d="M7.19998 8.34938C8.69061 8.34938 9.84936 7.14 9.84936 5.7C9.84936 4.26 8.69061 3 7.19998 3C5.70936 3 4.50054 4.20937 4.50054 5.64937C4.50054 7.08938 5.70936 8.34938 7.19998 8.34938ZM28.7494 8.34938C30.24 8.34938 31.3987 7.14 31.3987 5.7C31.3987 4.26 30.2906 3 28.7494 3C27.2587 3 26.0494 4.20937 26.0494 5.64937C26.0494 7.08938 27.3094 8.34938 28.7494 8.34938ZM33.9469 17.5294L32.9062 13.0221C32.6461 11.8971 31.8589 10.9476 30.7969 10.4976C29.7562 10.0476 28.6537 10.1179 27.6401 10.6804C26.3677 11.433 25.4115 12.621 24.9334 14.0205L24.3005 15.9263L23.4512 16.5028L23.3494 11.1C23.3494 10.6078 22.9415 10.2 22.4494 10.2H13.5C13.0078 10.2 12.6 10.6078 12.6 11.1V16.4494L11.6932 15.8728L11.0604 13.9671C10.5893 12.5608 9.63279 11.3796 8.35367 10.6269C7.38336 10.0644 6.23698 9.99412 5.19692 10.4441C4.13492 10.8941 3.34742 11.8436 3.08754 12.9686L2.05423 17.4759C1.79408 18.6009 2.09642 19.7963 2.86254 20.6681L6.64536 24.9364L7.21461 30.1468C7.31248 31.1138 8.08873 31.8 8.99998 31.8C9.07029 31.8 9.12654 31.793 9.19686 31.7859C10.188 31.6805 10.8984 30.7948 10.7859 29.8031L10.2234 24.5859C10.139 23.8547 9.82967 23.1729 9.34479 22.6172L6.90523 19.8609L7.89636 15.9021L8.28313 17.0484C8.50813 17.7516 8.95082 18.3703 9.66126 18.8839L12.53 20.712C12.7901 20.8737 13.2118 20.9722 13.5003 20.9933H22.4497C22.738 20.9722 23.1596 20.8737 23.42 20.712L26.2888 18.8839C26.9986 18.3706 27.4419 17.7589 27.6669 17.0484L28.0536 15.9021L29.0453 19.8609L26.6057 22.6172C26.1206 23.1727 25.8115 23.8547 25.7271 24.5859L25.1646 29.8031C25.0521 30.7943 25.7693 31.6808 26.7537 31.7859C26.8706 31.7944 26.9269 31.8 26.9494 31.8C27.8561 31.8 28.5862 31.1183 28.7353 30.1969L29.3045 24.9864L33.1369 20.7188C33.9019 19.8469 34.2056 18.6544 33.9469 17.5294ZM2.60211 23.1431L0.127106 29.3306C-0.238519 30.252 0.211481 31.2994 1.13286 31.6723C2.07504 32.0379 3.10836 31.5739 3.47398 30.6666L5.02761 26.778L4.91511 25.7514L2.60211 23.1431ZM35.8706 29.3306L33.4462 23.1431L31.1327 25.752L31.0202 26.7786L32.5738 30.6671C32.805 31.3725 33.48 31.8 34.1494 31.8C34.3742 31.8 34.5992 31.7578 34.817 31.6734C35.7862 31.2994 36.2362 30.2531 35.8706 29.3306Z" fill="#9E9E9E"/>
</svg>
