<svg width="36" height="36" viewBox="0 0 36 36" fill="none" xmlns="http://www.w3.org/2000/svg">
<path d="M9 30C7.75 30 6.6875 29.5625 5.8125 28.6875C4.9375 27.8125 4.5 26.75 4.5 25.5H1.5V9C1.5 8.175 1.794 7.469 2.382 6.882C2.969 6.294 3.675 6 4.5 6H25.5V12H30L34.5 18V25.5H31.5C31.5 26.75 31.0625 27.8125 30.1875 28.6875C29.3125 29.5625 28.25 30 27 30C25.75 30 24.6875 29.5625 23.8125 28.6875C22.9375 27.8125 22.5 26.75 22.5 25.5H13.5C13.5 26.75 13.0625 27.8125 12.1875 28.6875C11.3125 29.5625 10.25 30 9 30ZM9 27C9.425 27 9.7815 26.856 10.0695 26.568C10.3565 26.281 10.5 25.925 10.5 25.5C10.5 25.075 10.3565 24.719 10.0695 24.432C9.7815 24.144 9.425 24 9 24C8.575 24 8.2185 24.144 7.9305 24.432C7.6435 24.719 7.5 25.075 7.5 25.5C7.5 25.925 7.6435 26.281 7.9305 26.568C8.2185 26.856 8.575 27 9 27ZM27 27C27.425 27 27.781 26.856 28.068 26.568C28.356 26.281 28.5 25.925 28.5 25.5C28.5 25.075 28.356 24.719 28.068 24.432C27.781 24.144 27.425 24 27 24C26.575 24 26.219 24.144 25.932 24.432C25.644 24.719 25.5 25.075 25.5 25.5C25.5 25.925 25.644 26.281 25.932 26.568C26.219 26.856 26.575 27 27 27ZM25.5 19.5H31.875L28.5 15H25.5V19.5Z" fill="#404040"/>
</svg>
