<svg width="36" height="36" viewBox="0 0 36 36" fill="none" xmlns="http://www.w3.org/2000/svg">
<path d="M20.1135 3.41216C18.7581 2.86261 17.2419 2.86261 15.8865 3.41216L12.6015 4.74416L26.9895 10.3392L32.0505 8.38466C31.8431 8.21249 31.6103 8.07335 31.3605 7.97216L20.1135 3.41216ZM33 10.4292L19.125 15.7902V32.1747C19.461 32.1072 19.791 32.0067 20.1135 31.8762L31.3605 27.3162C31.8449 27.1199 32.2598 26.7835 32.5519 26.3501C32.844 25.9166 33 25.4058 33 24.8832V10.4307V10.4292ZM16.875 32.1747V15.7902L3 10.4292V24.8847C3.0003 25.4071 3.15647 25.9175 3.44854 26.3507C3.74061 26.7839 4.15529 27.12 4.6395 27.3162L15.8865 31.8762C16.209 32.0067 16.539 32.1057 16.875 32.1762V32.1747ZM3.9495 8.38466L18 13.8132L23.8755 11.5422L9.561 5.97716L4.6395 7.97216C4.3845 8.07566 4.1535 8.21516 3.9495 8.38466Z" fill="#404040"/>
</svg>
