<svg width="33" height="24" viewBox="0 0 33 24" fill="none" xmlns="http://www.w3.org/2000/svg">
<path d="M7.5 24C6.25 24 5.1875 23.5625 4.3125 22.6875C3.4375 21.8125 3 20.75 3 19.5H0V3C0 2.175 0.294 1.469 0.882 0.882C1.469 0.294 2.175 0 3 0H24V6H28.5L33 12V19.5H30C30 20.75 29.5625 21.8125 28.6875 22.6875C27.8125 23.5625 26.75 24 25.5 24C24.25 24 23.1875 23.5625 22.3125 22.6875C21.4375 21.8125 21 20.75 21 19.5H12C12 20.75 11.5625 21.8125 10.6875 22.6875C9.8125 23.5625 8.75 24 7.5 24ZM7.5 21C7.925 21 8.2815 20.856 8.5695 20.568C8.8565 20.281 9 19.925 9 19.5C9 19.075 8.8565 18.719 8.5695 18.432C8.2815 18.144 7.925 18 7.5 18C7.075 18 6.7185 18.144 6.4305 18.432C6.1435 18.719 6 19.075 6 19.5C6 19.925 6.1435 20.281 6.4305 20.568C6.7185 20.856 7.075 21 7.5 21ZM25.5 21C25.925 21 26.281 20.856 26.568 20.568C26.856 20.281 27 19.925 27 19.5C27 19.075 26.856 18.719 26.568 18.432C26.281 18.144 25.925 18 25.5 18C25.075 18 24.719 18.144 24.432 18.432C24.144 18.719 24 19.075 24 19.5C24 19.925 24.144 20.281 24.432 20.568C24.719 20.856 25.075 21 25.5 21ZM24 13.5H30.375L27 9H24V13.5Z" fill="#404040"/>
</svg>
